<svg xmlns="http://www.w3.org/2000/svg" width="25.137" height="25.175" viewBox="0 0 25.137 25.175">
  <g id="Component_228_1" transform="translate(0.513 0.5)">
    <path id="Path_2031" d="M85.439,12.087A12.071,12.071,0,0,0,73.384,0V12.087H61.329A12.071,12.071,0,0,0,73.384,24.175V12.087Z" transform="translate(-61.329)" fill="#fff" stroke="rgba(0,0,0,0)" stroke-miterlimit="10" stroke-width="1"></path>
    <path id="Path_2032" d="M100.323,50.366A12.07,12.07,0,0,0,111.664,39a13.417,13.417,0,0,0-11.341,11.371" transform="translate(-87.575 -26.211)" fill="#fff" stroke="rgba(0,0,0,0)" stroke-miterlimit="10" stroke-width="1"></path>
    <path id="Path_2033" d="M72.735.065A12.07,12.07,0,0,0,61.394,11.436,13.417,13.417,0,0,0,72.735.065" transform="translate(-61.372 -0.043)" fill="#fff" stroke="rgba(0,0,0,0)" stroke-miterlimit="10" stroke-width="1"></path>
  </g>
</svg>
