<svg version="1.2" xmlns="http://www.w3.org/2000/svg" viewBox="0 0 1518 1520" width="1518" height="1520">
	<title>Hunter_Douglas_Logo-svg</title>
	<defs>
		<clipPath clipPathUnits="userSpaceOnUse" id="cp1">
			<path d="m-27.78 0h1605.52v1520.29h-1605.52z"/>
		</clipPath>
		<clipPath clipPathUnits="userSpaceOnUse" id="cp2">
			<path d="m774.98 767h802.76v753.29h-802.76z"/>
		</clipPath>
		<clipPath clipPathUnits="userSpaceOnUse" id="cp3">
			<path d="m-27.78 0h802.76v767h-802.76z"/>
		</clipPath>
	</defs>
	<style>
		.s0 { fill: #ffffff } 
		.s1 { fill: #ef8200 } 
	</style>
	<g id="layer1">
		<g id="Clip-Path: g2853" clip-path="url(#cp1)">
			<g id="g2853">
				<path id="path2849" class="s0" d="m759 1520c-419.6 0-758.8-339.7-758.8-760 0-420.3 339.2-760 758.8-760 419.7 0 758.9 339.7 758.9 760 0 420.3-339.2 760-758.9 760z"/>
				<path id="path2851" class="s1" d="m759 760.1v759.9c-419 0-758.6-340.1-758.6-759.9h758.6v-760.1c419.1 0 758.9 340.4 758.9 760.1z"/>
			</g>
		</g>
		<g id="Clip-Path: g2857" clip-path="url(#cp2)">
			<g id="g2857">
				<path id="path2855" class="s1" d="m802.6 1518.9c384.3-22 692.2-330.1 713.8-715.1-388.2 72.3-641.6 326.1-713.8 715.1z"/>
			</g>
		</g>
		<g id="Clip-Path: g2861" clip-path="url(#cp3)">
			<g id="g2861">
				<path id="path2859" class="s1" d="m715.4 1.4c-384.3 21.7-691.9 330.1-713.8 715.1 388.2-72.3 642-326.1 713.8-715.1z"/>
			</g>
		</g>
	</g>
</svg>